<?xml version="1.0" encoding="utf-8"?>
<!-- Generator: Adobe Illustrator 24.2.3, SVG Export Plug-In . SVG Version: 6.00 Build 0)  -->
<svg version="1.1" id="Layer_1" xmlns="http://www.w3.org/2000/svg" xmlns:xlink="http://www.w3.org/1999/xlink" x="0px" y="0px"
	 viewBox="0 0 28 28" enable-background="new 0 0 28 28" xml:space="preserve">
<path fill="#666666" d="M504.4,264c0.7,0,1.3,0,2,0c0.1,0,0.2,0.1,0.4,0.1c2.7,0.2,5.3,0.9,7.7,2.2c5.5,3,8.8,7.6,9.9,13.7
	c0.1,0.7,0.2,1.4,0.3,2.1c0,0.8,0,1.6,0,2.3c0,0.1-0.1,0.2-0.1,0.3c-0.1,1.9-0.5,3.7-1.2,5.4c-2.7,6.6-7.6,10.6-14.6,12
	c-0.6,0.1-1.3,0.2-2,0.3c-0.9,0-1.8,0-2.7,0c-0.1,0-0.2-0.1-0.3-0.1c-3.5-0.3-6.7-1.4-9.5-3.5c-4.3-3.1-6.9-7.2-7.8-12.4
	c-0.1-0.7-0.2-1.4-0.3-2.1c0-0.8,0-1.6,0-2.4c0-0.1,0.1-0.2,0.1-0.3c0.2-2.2,0.7-4.4,1.6-6.4c2.9-6.1,7.7-9.8,14.3-11.1
	C502.9,264.1,503.7,264,504.4,264z M488.6,283.5c0.2,9.3,7.9,16.9,17.6,16.5c9-0.3,16.9-8.2,16.1-18.2c-0.7-8.3-7.7-15.5-16.9-15.4
	C495.8,266.5,488.4,274.2,488.6,283.5z"/>
<g>
	<path fill="#666666" d="M517.6,277.1c0,5.4,0,8.2,0,13.6c-0.3,1-1,1.3-2,1.3c-5.9,0-11.9,0-17.8,0c-1.2,0-2.4,0-3.6,0
		c-0.7,0-1.3-0.4-1.5-1.1c0-0.1-0.1-0.1-0.1-0.2c0-5.4,0-8.2,0-13.6c0,0,0,0,0,0c0.3-0.9,0.8-1.2,1.7-1.2c1.2,0,5.9,0,7,0
		c0.2,0,0.2,0,0.3-0.2c0.1-0.3,0.2-0.6,0.4-0.9c0.2-0.4,0.4-0.9,0.6-1.3c0.3-0.5,0.8-0.8,1.4-0.8c3.1,0,2.7,0,5.8,0
		c0.5,0,1,0.2,1.3,0.7c0.1,0.2,0.2,0.4,0.3,0.6c0.2,0.5,0.4,1.1,0.6,1.6c0.1,0.2,0.2,0.2,0.3,0.2c1.2,0,2.5,0,3.7,0
		c0.7,0,1.1,0.3,1.4,0.9C517.5,276.9,517.5,277,517.6,277.1z M505.1,277.2c-3.4,0-6.2,2.8-6.2,6.2c0,3.5,2.8,6.3,6.3,6.3
		c3.4,0,6.2-2.8,6.2-6.2C511.3,280,508.5,277.2,505.1,277.2z"/>
	<path fill="#666666" d="M508.2,283.5c0,1.7-1.4,3.1-3.1,3.1c-1.7,0-3.1-1.4-3.1-3.1c0-1.7,1.4-3.1,3.1-3.1
		C506.8,280.3,508.2,281.7,508.2,283.5z"/>
</g>
<g>
	<path fill="#FFFFFF" d="M521.1,302.1c-0.8,0-1.5-0.3-2-0.9l-31.6-32.2c-0.5-0.5-0.8-1.3-0.8-2c0-0.8,0.3-1.5,0.9-2
		c0.5-0.5,1.3-0.8,2-0.8c0.8,0,1.5,0.3,2,0.9l31.6,32.2c0.5,0.5,0.8,1.3,0.8,2c0,0.8-0.3,1.5-0.9,2
		C522.6,301.8,521.9,302.1,521.1,302.1z"/>
	<path fill="#666666" d="M521.1,300.6c-0.3,0-0.7-0.1-1-0.4L488.6,268c-0.5-0.5-0.5-1.4,0-1.9c0.5-0.5,1.4-0.5,1.9,0l31.6,32.2
		c0.5,0.5,0.5,1.4,0,1.9C521.8,300.4,521.5,300.6,521.1,300.6z"/>
</g>
<g>
	<path fill="none" d="M2.2,14.2c0.1,6.5,5.5,11.8,12.3,11.6c2.3-0.1,4.4-0.8,6.2-2.1L4.4,7.1C3,9.1,2.1,11.6,2.2,14.2z"/>
	<path fill="none" d="M25.8,13C25.3,7.2,20.4,2.1,13.9,2.2c-2.5,0-4.8,0.8-6.6,2.1l16.3,16.6C25.1,18.7,26,16,25.8,13z"/>
	<path fill="#666666" d="M27.3,11.7c-0.8-4.3-3.1-7.5-7-9.6c-1.7-0.9-3.5-1.4-5.4-1.5c-0.1,0-0.2,0-0.3,0c-0.5,0-0.9,0-1.4,0
		c-0.5,0.1-1.1,0.1-1.6,0.2c-2.2,0.4-4,1.2-5.6,2.4l1.2,1.2c1.9-1.3,4.2-2.1,6.6-2.1c6.5-0.1,11.4,5,11.8,10.8
		c0.2,3-0.6,5.7-2.2,7.9l1.2,1.2c0.7-1,1.3-2,1.8-3.2c0.5-1.2,0.8-2.5,0.9-3.8c0-0.1,0-0.2,0-0.2c0-0.5,0-1.1,0-1.6
		C27.4,12.7,27.4,12.2,27.3,11.7z"/>
	<path fill="#666666" d="M14.5,25.8C7.7,26.1,2.3,20.7,2.2,14.2C2.1,11.6,3,9.1,4.4,7.1L3.2,5.9C2.6,6.7,2.1,7.5,1.7,8.5
		C1,9.9,0.7,11.4,0.5,13c0,0.1,0,0.1,0,0.2c0,0.6,0,1.1,0,1.7c0.1,0.5,0.1,1,0.2,1.5C1.4,20,3.2,22.9,6.2,25c2,1.4,4.2,2.2,6.7,2.4
		c0.1,0,0.1,0,0.2,0c0.6,0,1.3,0,1.9,0c0.5-0.1,0.9-0.1,1.4-0.2c2.2-0.4,4-1.2,5.6-2.3l-1.2-1.2C18.9,25,16.8,25.7,14.5,25.8z"/>
	<path fill="none" d="M11.6,14.4l-1.9-1.9c-0.2,0.5-0.3,1.1-0.3,1.7c0,2.4,2,4.4,4.4,4.4c0.6,0,1.1-0.1,1.6-0.3l-1.9-1.9
		C12.5,16.2,11.7,15.4,11.6,14.4z"/>
	<path fill="none" d="M13.8,9.8c-0.3,0-0.6,0-1,0.1l5.2,5.3c0.1-0.3,0.1-0.7,0.1-1C18.1,11.8,16.2,9.8,13.8,9.8z"/>
	<path fill="#666666" d="M13.8,9.8c2.4,0,4.4,2,4.4,4.4c0,0.4,0,0.7-0.1,1l4.3,4.4c0.1-0.1,0.1-0.2,0.2-0.4c0-3.8,0-5.7,0-9.5
		c0-0.1-0.1-0.2-0.1-0.2c-0.2-0.4-0.5-0.7-1-0.7c-0.9,0-1.7,0-2.6,0c-0.1,0-0.2,0-0.2-0.1c-0.1-0.4-0.3-0.8-0.5-1.1
		c-0.1-0.2-0.1-0.3-0.2-0.5c-0.2-0.3-0.5-0.5-0.9-0.5c-2.2,0-1.9,0-4.1,0c-0.4,0-0.8,0.2-1,0.5c-0.2,0.3-0.3,0.6-0.4,0.9
		c-0.1,0.1-0.1,0.3-0.2,0.4l1.4,1.4C13.1,9.8,13.4,9.8,13.8,9.8z"/>
	<path fill="#666666" d="M13.8,18.6c-2.4,0-4.4-2-4.4-4.4c0-0.6,0.1-1.2,0.3-1.7L6.1,8.8C5.5,8.9,5.2,9.1,5,9.7c0,0,0,0,0,0
		c0,3.8,0,5.7,0,9.5c0,0,0,0.1,0.1,0.1c0.2,0.5,0.6,0.7,1,0.8c0.8,0,1.7,0,2.5,0c2.9,0,5.7,0,8.6,0l-1.9-1.9
		C14.9,18.5,14.3,18.6,13.8,18.6z"/>
	<path fill="#666666" d="M13.5,16.3l-1.9-1.9C11.7,15.4,12.5,16.2,13.5,16.3z"/>
	<path fill="#666666" d="M25,26.2c-0.2,0-0.5-0.1-0.7-0.3L2.2,3.3C1.8,3,1.8,2.4,2.2,2c0.4-0.4,1-0.4,1.3,0l22.1,22.6
		c0.4,0.4,0.4,1,0,1.3C25.5,26.1,25.3,26.2,25,26.2z"/>
</g>
</svg>
